<?xml version="1.0" encoding="UTF-8" standalone="no"?>
<svg width="80px" height="80px" viewBox="0 0 80 80" version="1.1" xmlns="http://www.w3.org/2000/svg" xmlns:xlink="http://www.w3.org/1999/xlink">
    <!-- Generator: Sketch 39.1 (31720) - http://www.bohemiancoding.com/sketch -->
    <title>icon_map</title>
    <desc>Created with Sketch.</desc>
    <defs></defs>
    <g id="Page-1" stroke="none" stroke-width="1" fill="none" fill-rule="evenodd">
        <g id="icon_map" fill="#FFFFFF">
            <path d="M44.7587278,5.60109126 C42.5802867,4.97867953 38.9236178,4.82307659 36.6673752,5.21208393 C23.1299199,7.70173088 14.2605527,21.4725906 19.5510524,33.9208253 C25.5417654,47.9250894 33.0885077,61.3069418 39.7794339,75 C46.4703601,61.3069418 54.0171024,48.0028909 60.0078154,33.9986268 C65.0649107,22.0950023 57.284764,9.10215729 44.7587278,5.60109126 L44.7587278,5.60109126 Z M39.7794339,39.366928 C33.2441106,39.366928 27.9536109,33.9986268 27.9536109,27.3855021 C27.9536109,20.7723774 33.2441106,15.4818776 39.7794339,15.4818776 C46.3147571,15.4818776 51.6052569,20.8501788 51.6052569,27.4633035 C51.6052569,34.0764283 46.3147571,39.366928 39.7794339,39.366928 L39.7794339,39.366928 Z" id="Shape"></path>
        </g>
    </g>
</svg>