<?xml version="1.0" encoding="UTF-8" standalone="no"?>
<svg width="80px" height="80px" viewBox="0 0 80 80" version="1.1" xmlns="http://www.w3.org/2000/svg" xmlns:xlink="http://www.w3.org/1999/xlink">
    <!-- Generator: Sketch 39.1 (31720) - http://www.bohemiancoding.com/sketch -->
    <title>icon_time</title>
    <desc>Created with Sketch.</desc>
    <defs></defs>
    <g id="Page-1" stroke="none" stroke-width="1" fill="none" fill-rule="evenodd">
        <g id="icon_time" fill="#FFFFFF">
            <g id="Group" transform="translate(5.000000, 5.000000)">
                <path d="M35,0 C15.6702,0 0,15.6702 0,35 C0,54.3298 15.6702,70 35,70 C54.3298,70 70,54.3298 70,35 C70,15.6702 54.3298,0 35,0 L35,0 Z M35,63 C19.5363,63 7,50.4644 7,35 C7,19.5363 19.5363,7 35,7 C50.4644,7 63,19.5363 63,35 C63,50.4644 50.4644,63 35,63 L35,63 Z" id="Shape"></path>
                <path d="M37.8,35 C37.8,37.3191 36.2334,39.2 34.3,39.2 L34.3,39.2 C32.3666,39.2 30.8,37.3191 30.8,35 L30.8,14 C30.8,11.6809 32.3666,9.8 34.3,9.8 L34.3,9.8 C36.2334,9.8 37.8,11.6809 37.8,14 L37.8,35 L37.8,35 Z" id="Shape"></path>
                <path d="M32.9672,39.312 C30.9988,38.0849 30.2834,35.6783 31.3691,33.9353 L31.3691,33.9353 C32.4555,32.1923 34.9314,31.7744 36.8998,33.0008 L54.7232,44.1063 C56.6916,45.3334 57.407,47.7407 56.3213,49.4837 L56.3213,49.4837 C55.2356,51.226 52.759,51.6446 50.7906,50.4182 L32.9672,39.312 L32.9672,39.312 Z" id="Shape"></path>
            </g>
        </g>
    </g>
</svg>