<?xml version="1.0" encoding="UTF-8" standalone="no"?>
<svg width="200px" height="200px" viewBox="0 0 200 200" version="1.1" xmlns="http://www.w3.org/2000/svg" xmlns:xlink="http://www.w3.org/1999/xlink">
    <!-- Generator: Sketch 39.1 (31720) - http://www.bohemiancoding.com/sketch -->
    <title>icon_i</title>
    <desc>Created with Sketch.</desc>
    <defs></defs>
    <g id="Page-1" stroke="none" stroke-width="1" fill="none" fill-rule="evenodd">
        <g id="icon_i" fill="#FFFFFF">
            <g id="Group" transform="translate(20.000000, 10.000000)">
                <polygon id="Shape" points="88.7388764 75.1446 88.7388764 66.2436 65.0121348 66.2436 65.0121348 75.3804 70.4880899 75.3804 70.4880899 108.2736 65.0121348 108.2736 65.0121348 117.4122 94.2148315 117.4122 94.2148315 108.2736 88.7388764 108.2736"></polygon>
                <ellipse id="Oval" cx="79.6134831" cy="51.3882" rx="9.12539326" ry="9.1368"></ellipse>
                <path d="M159.226966,79.713 C159.226966,35.7588 123.512809,0 79.6134831,0 C35.7141573,0 0,35.7588 0,79.713 C0,115.1586 23.2269663,145.2582 55.2395506,155.5902 L79.6134831,180 L103.989213,155.5938 C136,145.2582 159.226966,115.1604 159.226966,79.713 L159.226966,79.713 Z M79.6134831,138.8592 C47.0417978,138.8592 20.5465169,112.3218 20.5465169,79.7148 C20.5465169,47.1042 47.0435955,20.5722 79.6134831,20.5722 C112.183371,20.5722 138.680449,47.1042 138.680449,79.7148 C138.682247,112.3218 112.183371,138.8592 79.6134831,138.8592 L79.6134831,138.8592 Z" id="Shape"></path>
            </g>
        </g>
    </g>
</svg>