<?xml version="1.0" encoding="UTF-8" standalone="no"?>
<svg width="273px" height="114px" viewBox="0 0 273 114" version="1.1" xmlns="http://www.w3.org/2000/svg" xmlns:xlink="http://www.w3.org/1999/xlink">
    <!-- Generator: Sketch 39.1 (31720) - http://www.bohemiancoding.com/sketch -->
    <title>logo_gc_fribourg</title>
    <desc>Created with Sketch.</desc>
    <defs>
        <path d="M0.86053554,30.4550874 C0.860537713,23.1132484 3.19739944,15.7142825 8.025,9.45 C11.097,5.463 14.876,2.345 19.044,0.115 C18.625,0.596 18.216,1.085 17.824,1.595 C15.114,5.113 13.209,9.012 12.164,13.185 C11.123,17.35 10.879,21.561 11.437,25.702 C11.996,29.841 13.324,33.846 15.393,37.605 C17.468,41.375 20.307,44.662 23.825,47.375 C27.242,50.007 31.081,51.887 35.238,52.959 C38.447,53.786 41.71,54.127 44.975,53.989 L39.897,60.576 L44.068,63.79 C34.101,66.403 23.075,64.542 14.283,57.765 C5.47713416,50.9807847 0.860553692,40.7744037 0.86053554,30.4551585 L0.86053554,30.4550874 L0.86053554,30.4550874 Z" id="path-1"></path>
    </defs>
    <g id="Page-1" stroke="none" stroke-width="1" fill="none" fill-rule="evenodd">
        <g id="logo_gc_fribourg">
            <g id="Group-3" transform="translate(201.000000, 5.228000)">
                <mask id="mask-2" fill="white">
                    <use xlink:href="#path-1"></use>
                </mask>
                <use id="Clip-2" fill="#FFFFFF" xlink:href="#path-1"></use>
            </g>
            <path d="M241.907,5.542 C239.178,5.895 236.523,6.762 234.021,8.118 L234.021,8.118 C231.533,9.467 229.378,11.31 227.617,13.598 L227.617,13.598 C225.818,15.931 224.566,18.507 223.895,21.257 L223.895,21.257 C223.223,24.022 223.058,26.81 223.413,29.539 L223.413,29.539 C223.767,32.269 224.642,34.908 226.015,37.381 L226.015,37.381 C227.383,39.847 229.261,42.011 231.599,43.812 L231.599,43.812 C233.932,45.61 236.475,46.856 239.16,47.513 L239.16,47.513 C241.856,48.174 244.61,48.332 247.342,47.975 L247.342,47.975 C247.812,47.915 248.283,47.831 248.756,47.735 L248.756,47.735 L238.504,39.834 L245.96,30.16 L268.638,47.639 C270.049,43.822 270.747,39.831 270.76,35.855 L270.76,35.855 L270.76,35.627 C270.735,28.303 268.383,21.041 263.86,15.023 L263.86,15.023 C262.266,12.969 260.094,10.891 257.866,9.388 L257.866,9.388 C255.419,7.741 252.937,6.697 250.187,6.026 L250.187,6.026 C248.375,5.583 246.55,5.361 244.736,5.361 L244.736,5.361 C243.789,5.361 242.845,5.421 241.907,5.542" id="Fill-4" fill="#FFFFFF"></path>
            <g id="Group-41" transform="translate(2.000000, 2.228000)" fill="#FFFFFF">
                <path d="M0,18.0242 C0,7.4732 8.001,0.7722 17.801,0.7722 C24.701,0.7722 29.052,4.2722 31.552,8.2232 L25.702,11.4222 C24.151,9.0732 21.302,7.0732 17.801,7.0732 C11.7,7.0732 7.3,11.7232 7.3,18.0242 C7.3,24.3242 11.7,28.9742 17.801,28.9742 C20.751,28.9742 23.501,27.6742 24.852,26.4242 L24.852,22.4242 L16.051,22.4242 L16.051,16.2232 L31.952,16.2232 L31.952,29.0242 C28.552,32.8252 23.802,35.2742 17.801,35.2742 C8.001,35.2742 0,28.5242 0,18.0242 L0,18.0242 Z" id="Fill-6"></path>
                <path d="M63.5518,18.0242 C63.5518,11.7732 59.6008,7.0732 53.4498,7.0732 C47.2498,7.0732 43.2998,11.7732 43.2998,18.0242 C43.2998,24.2232 47.2498,28.9742 53.4498,28.9742 C59.6008,28.9742 63.5518,24.2232 63.5518,18.0242 M35.9988,18.0242 C35.9988,7.9732 43.3508,0.7722 53.4498,0.7722 C63.5008,0.7722 70.8518,7.9732 70.8518,18.0242 C70.8518,28.0742 63.5008,35.2742 53.4498,35.2742 C43.3508,35.2742 35.9988,28.0742 35.9988,18.0242" id="Fill-8"></path>
                <path d="M73.5488,29.9744 L77.4488,24.4244 C79.7998,26.8744 83.4498,28.9744 88.0498,28.9744 C91.9998,28.9744 93.8508,27.2234 93.8508,25.2744 C93.8508,19.4734 74.6498,23.5244 74.6498,10.9734 C74.6498,5.4224 79.4488,0.8234 87.2998,0.8234 C92.6008,0.8234 97.0008,2.4224 100.2998,5.4734 L96.3508,10.7734 C93.6498,8.2734 90.0498,7.1224 86.6498,7.1224 C83.6498,7.1224 81.9488,8.4224 81.9488,10.4224 C81.9488,15.6734 101.1008,12.1244 101.1008,24.5744 C101.1008,30.6744 96.6998,35.2744 87.7498,35.2744 C81.2998,35.2744 76.6988,33.1244 73.5488,29.9744" id="Fill-10"></path>
                <path d="M125.4004,12.0731 C125.4004,9.2731 123.2504,7.5731 120.4504,7.5731 L112.9494,7.5731 L112.9494,16.5241 L120.4504,16.5241 C123.2504,16.5241 125.4004,14.8231 125.4004,12.0731 L125.4004,12.0731 Z M105.8484,34.6751 L105.8484,1.3231 L121.4504,1.3231 C128.7004,1.3231 132.6514,6.2231 132.6514,12.0731 C132.6514,17.8741 128.6504,22.7741 121.4504,22.7741 L112.9494,22.7741 L112.9494,34.6751 L105.8484,34.6751 Z" id="Fill-12"></path>
                <polygon id="Fill-14" points="137.0987 34.6746 137.0987 1.3226 160.7007 1.3226 160.7007 7.5726 144.1997 7.5726 144.1997 14.5726 160.3507 14.5726 160.3507 20.8226 144.1997 20.8226 144.1997 28.4246 160.7007 28.4246 160.7007 34.6746"></polygon>
                <polygon id="Fill-16" points="165.9483 34.6746 165.9483 1.3226 173.0983 1.3226 173.0983 28.4246 187.2003 28.4246 187.2003 34.6746"></polygon>
                <path d="M0.8506,59.0242 C0.8506,48.7722 8.4006,41.7722 18.0006,41.7722 C23.9016,41.7722 28.0006,44.5732 30.6516,48.3732 L27.2026,50.3232 C25.3016,47.4732 21.8016,45.4732 18.0006,45.4732 C10.7006,45.4732 5.1506,51.0232 5.1506,59.0242 C5.1506,66.9242 10.7006,72.5752 18.0006,72.5752 C21.8016,72.5752 25.3016,70.5242 27.2026,67.7232 L30.7026,69.6242 C27.9016,73.4742 23.9016,76.2742 18.0006,76.2742 C8.4006,76.2742 0.8506,69.2742 0.8506,59.0242" id="Fill-18"></path>
                <polygon id="Fill-20" points="38.0001 75.6746 38.0001 42.3226 59.8511 42.3226 59.8511 46.0226 42.1491 46.0226 42.1491 56.7736 59.5011 56.7736 59.5011 60.4736 42.1491 60.4736 42.1491 71.9746 59.8511 71.9746 59.8511 75.6746"></polygon>
                <polygon id="Fill-22" points="90.0499 75.6746 70.5989 49.0726 70.5989 75.6746 66.4499 75.6746 66.4499 42.3226 70.6999 42.3226 89.9009 68.3736 89.9009 42.3226 94.0509 42.3226 94.0509 75.6746"></polygon>
                <polygon id="Fill-24" points="110.0988 75.6746 110.0988 46.0226 99.5478 46.0226 99.5478 42.3226 124.8508 42.3226 124.8508 46.0226 114.2488 46.0226 114.2488 75.6746"></polygon>
                <polygon id="Fill-26" points="131.3488 75.6746 131.3488 42.3226 153.2008 42.3226 153.2008 46.0226 135.4988 46.0226 135.4988 56.7736 152.8498 56.7736 152.8498 60.4736 135.4988 60.4736 135.4988 71.9746 153.2008 71.9746 153.2008 75.6746"></polygon>
                <path d="M182.3998,52.3739 C182.3998,48.5729 179.6498,46.0219 175.6988,46.0219 L166.9488,46.0219 L166.9488,58.7739 L175.6988,58.7739 C179.6498,58.7739 182.3998,56.1239 182.3998,52.3739 L182.3998,52.3739 Z M182.0988,75.6749 L173.6488,62.4239 L166.9488,62.4239 L166.9488,75.6749 L162.7978,75.6749 L162.7978,42.3229 L176.1988,42.3229 C182.2988,42.3229 186.6998,46.2239 186.6998,52.3739 C186.6998,58.3739 182.5488,61.6739 177.9998,62.0739 L186.9998,75.6749 L182.0988,75.6749 Z" id="Fill-28"></path>
                <polygon id="Fill-30" points="107.4006 108.6748 107.4006 92.0038 117.9726 92.0038 117.9726 93.3038 108.8256 93.3038 108.8256 99.4778 117.7976 99.4778 117.7976 100.7768 108.8256 100.7768 108.8256 108.6748"></polygon>
                <path d="M136.9983,96.8779 C136.9983,94.7779 135.5233,93.3039 133.2993,93.3039 L128.6253,93.3039 L128.6253,100.4769 L133.2993,100.4769 C135.5233,100.4769 136.9983,98.9779 136.9983,96.8779 L136.9983,96.8779 Z M136.9733,108.6749 L132.2993,101.7759 L128.6253,101.7759 L128.6253,108.6749 L127.2003,108.6749 L127.2003,92.0039 L133.4243,92.0039 C136.2983,92.0039 138.4983,93.8279 138.4983,96.8779 C138.4983,99.9019 136.3733,101.5759 133.8743,101.6769 L138.6973,108.6749 L136.9733,108.6749 Z" id="Fill-32"></path>
                <polygon id="Fill-34" points="148.3 108.675 149.725 108.675 149.725 92.004 148.3 92.004"></polygon>
                <path d="M170.3977,104.0762 C170.3977,102.3762 169.2227,100.7762 166.8987,100.7762 L161.5497,100.7762 L161.5497,107.3752 L166.8987,107.3752 C169.0977,107.3752 170.3977,106.1002 170.3977,104.0762 L170.3977,104.0762 Z M170.0737,96.4022 C170.0737,94.7032 168.9487,93.3042 166.7987,93.3042 L161.5497,93.3042 L161.5497,99.4772 L166.7987,99.4772 C168.9487,99.4772 170.0737,98.1272 170.0737,96.4022 L170.0737,96.4022 Z M160.1257,108.6752 L160.1257,92.0042 L166.9737,92.0042 C169.7727,92.0042 171.5727,93.6292 171.5727,96.2532 C171.5727,98.3522 170.1477,99.7772 168.6487,100.0772 C170.4227,100.3512 171.8977,102.2012 171.8977,104.1762 C171.8977,106.9502 170.0977,108.6752 167.1247,108.6752 L160.1257,108.6752 Z" id="Fill-36"></path>
                <path d="M195.8225,100.3516 C195.8225,96.1276 193.2225,93.0286 189.2235,93.0286 C185.1995,93.0286 182.6255,96.1276 182.6255,100.3516 C182.6255,104.5506 185.1995,107.6746 189.2235,107.6746 C193.2225,107.6746 195.8225,104.5506 195.8225,100.3516 M181.1255,100.3516 C181.1255,95.4776 184.3245,91.7286 189.2235,91.7286 C194.0975,91.7286 197.3215,95.4776 197.3215,100.3516 C197.3215,105.2256 194.0975,108.9746 189.2235,108.9746 C184.3245,108.9746 181.1255,105.2256 181.1255,100.3516" id="Fill-37"></path>
                <path d="M207.0998,102.2764 L207.0998,92.0044 L208.5498,92.0044 L208.5498,102.2514 C208.5498,105.6264 210.3248,107.6744 213.5988,107.6744 C216.8718,107.6744 218.6478,105.6264 218.6478,102.2514 L218.6478,92.0044 L220.0968,92.0044 L220.0968,102.2764 C220.0968,106.4004 217.8978,108.9744 213.5988,108.9744 C209.3248,108.9744 207.0998,106.3754 207.0998,102.2764" id="Fill-38"></path>
                <path d="M240.2971,96.8779 C240.2971,94.7779 238.8221,93.3039 236.5981,93.3039 L231.9241,93.3039 L231.9241,100.4769 L236.5981,100.4769 C238.8221,100.4769 240.2971,98.9779 240.2971,96.8779 L240.2971,96.8779 Z M240.2721,108.6749 L235.5981,101.7759 L231.9241,101.7759 L231.9241,108.6749 L230.4991,108.6749 L230.4991,92.0039 L236.7231,92.0039 C239.5971,92.0039 241.7971,93.8279 241.7971,96.8779 C241.7971,99.9019 239.6721,101.5759 237.1731,101.6769 L241.9961,108.6749 L240.2721,108.6749 Z" id="Fill-39"></path>
                <path d="M250.9738,100.3516 C250.9738,95.2036 254.7238,91.7286 259.4218,91.7286 C262.1708,91.7286 264.1708,92.8296 265.6958,94.5786 L264.6208,95.3536 C263.4468,93.9536 261.5468,93.0286 259.4218,93.0286 C255.5228,93.0286 252.4738,96.0026 252.4738,100.3516 C252.4738,104.6506 255.5228,107.7006 259.4218,107.7006 C261.6468,107.7006 263.4208,106.6006 264.3218,105.6756 L264.3218,101.6766 L258.0228,101.6766 L258.0228,100.4016 L265.7448,100.4016 L265.7448,106.2256 C264.2708,107.8746 262.0458,108.9996 259.4218,108.9996 C254.7238,108.9996 250.9738,105.5006 250.9738,100.3516" id="Fill-40"></path>
            </g>
        </g>
    </g>
</svg>