<?xml version="1.0" encoding="UTF-8" standalone="no"?>
<svg width="273px" height="114px" viewBox="0 0 273 114" version="1.1" xmlns="http://www.w3.org/2000/svg" xmlns:xlink="http://www.w3.org/1999/xlink">
    <!-- Generator: Sketch 39.1 (31720) - http://www.bohemiancoding.com/sketch -->
    <title>logo_gc_cote</title>
    <desc>Created with Sketch.</desc>
    <defs>
        <path d="M0.86053554,30.4810108 C0.860537725,23.1392199 3.19739945,15.7401139 8.025,9.475 C11.097,5.488 14.876,2.37 19.044,0.14 C18.625,0.621 18.216,1.11 17.824,1.62 C15.114,5.138 13.209,9.038 12.164,13.21 C11.123,17.375 10.879,21.586 11.437,25.727 C11.996,29.866 13.324,33.871 15.393,37.631 C17.468,41.401 20.307,44.687 23.825,47.401 C27.242,50.033 31.081,51.912 35.238,52.985 C38.447,53.811 41.71,54.153 44.975,54.014 L39.897,60.601 L44.068,63.815 C34.101,66.428 23.075,64.568 14.283,57.791 C5.47713416,51.0062004 0.860553693,40.8002593 0.86053554,30.4810819 L0.86053554,30.4810264 L0.86053554,30.4810108 Z" id="path-1"></path>
        <path d="M18.907,0.339 C16.178,0.693 13.523,1.56 11.021,2.916 C8.533,4.265 6.378,6.107 4.617,8.395 C2.818,10.729 1.566,13.305 0.895,16.054 C0.223,18.82 0.058,21.607 0.413,24.336 C0.767,27.066 1.642,29.705 3.015,32.178 C4.383,34.645 6.261,36.808 8.599,38.609 C10.932,40.407 13.475,41.653 16.16,42.31 C18.856,42.971 21.61,43.13 24.342,42.772 C24.812,42.712 25.283,42.628 25.756,42.532 L15.504,34.631 L22.96,24.958 L45.638,42.437 C47.049,38.619 47.747,34.628 47.76,30.652 L47.76,30.425 C47.735,23.1 45.383,15.839 40.86,9.822 C39.266,7.767 37.094,5.689 34.866,4.186 C32.419,2.538 29.937,1.495 27.187,0.823 C25.375,0.38 23.55,0.158 21.736,0.158 C20.789,0.158 19.845,0.218 18.907,0.339 L18.907,0.339 Z" id="path-3"></path>
    </defs>
    <g id="Page-1" stroke="none" stroke-width="1" fill="none" fill-rule="evenodd">
        <g id="logo_gc_cote">
            <g id="Group-3" transform="translate(201.000000, 5.202000)">
                <mask id="mask-2" fill="white">
                    <use xlink:href="#path-1"></use>
                </mask>
                <use id="Clip-2" fill="#FFFFFF" xlink:href="#path-1"></use>
            </g>
            <g id="Group-6" transform="translate(223.000000, 5.202000)">
                <mask id="mask-4" fill="white">
                    <use xlink:href="#path-3"></use>
                </mask>
                <use id="Clip-5" fill="#FFFFFF" xlink:href="#path-3"></use>
            </g>
            <g id="Group-45" transform="translate(2.000000, 2.202000)" fill="#FFFFFF">
                <path d="M0,18.0496 C0,7.4986 8.001,0.7976 17.801,0.7976 C24.701,0.7976 29.052,4.2976 31.552,8.2486 L25.702,11.4476 C24.151,9.0986 21.302,7.0986 17.801,7.0986 C11.7,7.0986 7.3,11.7486 7.3,18.0496 C7.3,24.3496 11.7,28.9996 17.801,28.9996 C20.751,28.9996 23.501,27.6996 24.852,26.4496 L24.852,22.4486 L16.051,22.4486 L16.051,16.2486 L31.952,16.2486 L31.952,29.0496 C28.552,32.8506 23.802,35.2996 17.801,35.2996 C8.001,35.2996 0,28.5496 0,18.0496" id="Fill-7"></path>
                <path d="M63.5518,18.0496 C63.5518,11.7986 59.6008,7.0986 53.4498,7.0986 C47.2498,7.0986 43.2998,11.7986 43.2998,18.0496 C43.2998,24.2486 47.2498,28.9996 53.4498,28.9996 C59.6008,28.9996 63.5518,24.2486 63.5518,18.0496 M35.9988,18.0496 C35.9988,7.9986 43.3508,0.7976 53.4498,0.7976 C63.5008,0.7976 70.8518,7.9986 70.8518,18.0496 C70.8518,28.0996 63.5008,35.2996 53.4498,35.2996 C43.3508,35.2996 35.9988,28.0996 35.9988,18.0496" id="Fill-10"></path>
                <path d="M73.5488,29.9998 L77.4488,24.4498 C79.7998,26.8998 83.4498,28.9998 88.0498,28.9998 C91.9998,28.9998 93.8508,27.2488 93.8508,25.2998 C93.8508,19.4988 74.6498,23.5498 74.6498,10.9988 C74.6498,5.4478 79.4488,0.8488 87.2998,0.8488 C92.6008,0.8488 97.0008,2.4478 100.2998,5.4988 L96.3508,10.7988 C93.6498,8.2988 90.0498,7.1478 86.6498,7.1478 C83.6498,7.1478 81.9488,8.4478 81.9488,10.4478 C81.9488,15.6988 101.1008,12.1498 101.1008,24.5998 C101.1008,30.6998 96.6998,35.2998 87.7498,35.2998 C81.2998,35.2998 76.6988,33.1498 73.5488,29.9998" id="Fill-13"></path>
                <path d="M125.4004,12.0984 C125.4004,9.2984 123.2504,7.5984 120.4504,7.5984 L112.9494,7.5984 L112.9494,16.5494 L120.4504,16.5494 C123.2504,16.5494 125.4004,14.8484 125.4004,12.0984 L125.4004,12.0984 Z M105.8484,34.7004 L105.8484,1.3484 L121.4504,1.3484 C128.7004,1.3484 132.6514,6.2484 132.6514,12.0984 C132.6514,17.8994 128.6504,22.7994 121.4504,22.7994 L112.9494,22.7994 L112.9494,34.7004 L105.8484,34.7004 Z" id="Fill-15"></path>
                <polygon id="Fill-17" points="137.0987 34.7 137.0987 1.348 160.7007 1.348 160.7007 7.598 144.1997 7.598 144.1997 14.598 160.3507 14.598 160.3507 20.848 144.1997 20.848 144.1997 28.45 160.7007 28.45 160.7007 34.7"></polygon>
                <polygon id="Fill-19" points="165.9483 34.7 165.9483 1.348 173.0983 1.348 173.0983 28.45 187.2003 28.45 187.2003 34.7"></polygon>
                <path d="M0.8506,59.0496 C0.8506,48.7976 8.4006,41.7976 18.0006,41.7976 C23.9016,41.7976 28.0006,44.5986 30.6516,48.3986 L27.2026,50.3486 C25.3016,47.4986 21.8016,45.4986 18.0006,45.4986 C10.7006,45.4986 5.1506,51.0486 5.1506,59.0496 C5.1506,66.9496 10.7006,72.6006 18.0006,72.6006 C21.8016,72.6006 25.3016,70.5496 27.2026,67.7486 L30.7026,69.6496 C27.9016,73.4996 23.9016,76.2996 18.0006,76.2996 C8.4006,76.2996 0.8506,69.2996 0.8506,59.0496" id="Fill-21"></path>
                <polygon id="Fill-23" points="38.0001 75.7 38.0001 42.348 59.8511 42.348 59.8511 46.048 42.1491 46.048 42.1491 56.799 59.5011 56.799 59.5011 60.499 42.1491 60.499 42.1491 72 59.8511 72 59.8511 75.7"></polygon>
                <polygon id="Fill-25" points="90.0499 75.7 70.5989 49.098 70.5989 75.7 66.4499 75.7 66.4499 42.348 70.6999 42.348 89.9009 68.399 89.9009 42.348 94.0509 42.348 94.0509 75.7"></polygon>
                <polygon id="Fill-27" points="110.0988 75.7 110.0988 46.048 99.5478 46.048 99.5478 42.348 124.8508 42.348 124.8508 46.048 114.2488 46.048 114.2488 75.7"></polygon>
                <polygon id="Fill-29" points="131.3488 75.7 131.3488 42.348 153.2008 42.348 153.2008 46.048 135.4988 46.048 135.4988 56.799 152.8498 56.799 152.8498 60.499 135.4988 60.499 135.4988 72 153.2008 72 153.2008 75.7"></polygon>
                <path d="M182.3998,52.3993 C182.3998,48.5983 179.6498,46.0473 175.6988,46.0473 L166.9488,46.0473 L166.9488,58.7993 L175.6988,58.7993 C179.6498,58.7993 182.3998,56.1493 182.3998,52.3993 L182.3998,52.3993 Z M182.0988,75.7003 L173.6488,62.4493 L166.9488,62.4493 L166.9488,75.7003 L162.7978,75.7003 L162.7978,42.3483 L176.1988,42.3483 C182.2988,42.3483 186.6998,46.2493 186.6998,52.3993 C186.6998,58.3993 182.5488,61.6993 177.9998,62.0993 L186.9998,75.7003 L182.0988,75.7003 Z" id="Fill-31"></path>
                <polygon id="Fill-33" points="133.426 108.7002 133.426 92.0292 134.875 92.0292 134.875 107.4002 142.948 107.4002 142.948 108.7002"></polygon>
                <path d="M158.1487,93.5537 L154.2007,103.3017 L162.0737,103.3017 L158.1487,93.5537 Z M164.1977,108.6997 L162.5477,104.6017 L153.7247,104.6017 L152.0757,108.6997 L150.4257,108.6997 L157.2497,92.0297 L159.0237,92.0297 L165.8467,108.6997 L164.1977,108.6997 Z" id="Fill-35"></path>
                <path d="M186.6496,100.377 C186.6496,95.254 190.3746,91.754 195.0976,91.754 C197.7476,91.754 199.7716,92.929 201.1706,94.704 L199.9716,95.479 C198.9216,94.028 197.0976,93.054 195.0976,93.054 C191.1986,93.054 188.1496,96.028 188.1496,100.377 C188.1496,104.676 191.1986,107.7 195.0976,107.7 C197.0976,107.7 198.9216,106.726 199.9716,105.276 L201.1966,106.025 C199.6966,107.851 197.7476,109 195.0976,109 C190.3746,109 186.6496,105.501 186.6496,100.377" id="Fill-37"></path>
                <path d="M219.9475,90.5049 L217.7985,87.6809 L215.6995,90.5049 L214.6995,90.5049 L217.1235,86.9049 L218.4725,86.9049 L220.9475,90.5049 L219.9475,90.5049 Z M224.3725,100.3769 C224.3725,96.1529 221.7725,93.0539 217.7735,93.0539 C213.7495,93.0539 211.1755,96.1529 211.1755,100.3769 C211.1755,104.5759 213.7495,107.6999 217.7735,107.6999 C221.7725,107.6999 224.3725,104.5759 224.3725,100.3769 L224.3725,100.3769 Z M209.6755,100.3769 C209.6755,95.5029 212.8745,91.7539 217.7735,91.7539 C222.6475,91.7539 225.8715,95.5029 225.8715,100.3769 C225.8715,105.2509 222.6475,108.9999 217.7735,108.9999 C212.8745,108.9999 209.6755,105.2509 209.6755,100.3769 L209.6755,100.3769 Z" id="Fill-39"></path>
                <polygon id="Fill-41" points="239.174 108.7002 239.174 93.3292 233.726 93.3292 233.726 92.0292 246.072 92.0292 246.072 93.3292 240.624 93.3292 240.624 108.7002"></polygon>
                <polygon id="Fill-43" points="255.2746 108.7002 255.2746 92.0292 265.8466 92.0292 265.8466 93.3292 256.6996 93.3292 256.6996 99.5032 265.6716 99.5032 265.6716 100.8022 256.6996 100.8022 256.6996 107.4002 265.8466 107.4002 265.8466 108.7002"></polygon>
            </g>
        </g>
    </g>
</svg>