<?xml version="1.0" encoding="UTF-8" standalone="no"?>
<svg width="273px" height="114px" viewBox="0 0 273 114" version="1.1" xmlns="http://www.w3.org/2000/svg" xmlns:xlink="http://www.w3.org/1999/xlink">
    <!-- Generator: Sketch 39.1 (31720) - http://www.bohemiancoding.com/sketch -->
    <title>logo_gc_beroche</title>
    <desc>Created with Sketch.</desc>
    <defs>
        <path d="M0.86053554,30.4810108 C0.860537725,23.1392199 3.19739945,15.7401139 8.025,9.475 C11.097,5.488 14.876,2.37 19.044,0.14 C18.625,0.621 18.216,1.11 17.824,1.62 C15.114,5.138 13.209,9.038 12.164,13.21 C11.123,17.375 10.879,21.586 11.437,25.727 C11.996,29.866 13.324,33.871 15.393,37.631 C17.468,41.401 20.307,44.687 23.825,47.401 C27.242,50.033 31.081,51.912 35.238,52.985 C38.447,53.811 41.71,54.153 44.975,54.014 L39.897,60.601 L44.068,63.815 C34.101,66.428 23.075,64.568 14.283,57.791 C5.47713416,51.0062004 0.860553693,40.8002593 0.86053554,30.4810819 L0.86053554,30.4810264 L0.86053554,30.4810108 Z" id="path-1"></path>
        <path d="M18.907,0.339 C16.178,0.693 13.523,1.56 11.021,2.916 C8.533,4.265 6.378,6.107 4.617,8.395 C2.818,10.729 1.566,13.305 0.895,16.054 C0.223,18.82 0.058,21.607 0.413,24.336 C0.767,27.066 1.642,29.705 3.015,32.178 C4.383,34.645 6.261,36.808 8.599,38.609 C10.932,40.407 13.475,41.653 16.16,42.31 C18.856,42.971 21.61,43.13 24.342,42.772 C24.812,42.712 25.283,42.628 25.756,42.532 L15.504,34.631 L22.96,24.958 L45.638,42.437 C47.049,38.619 47.747,34.628 47.76,30.652 L47.76,30.425 C47.735,23.1 45.383,15.839 40.86,9.822 C39.266,7.767 37.094,5.689 34.866,4.186 C32.419,2.538 29.937,1.495 27.187,0.823 C25.375,0.38 23.55,0.158 21.736,0.158 C20.789,0.158 19.845,0.218 18.907,0.339 L18.907,0.339 Z" id="path-3"></path>
    </defs>
    <g id="Page-1" stroke="none" stroke-width="1" fill="none" fill-rule="evenodd">
        <g id="logo_gc_beroche">
            <g id="Page-1" transform="translate(2.000000, 2.000000)">
                <g id="Group-3" transform="translate(199.000000, 3.202000)">
                    <mask id="mask-2" fill="white">
                        <use xlink:href="#path-1"></use>
                    </mask>
                    <use id="Clip-2" fill="#FFFFFF" xlink:href="#path-1"></use>
                </g>
                <g id="Group-6" transform="translate(221.000000, 3.202000)">
                    <mask id="mask-4" fill="white">
                        <use xlink:href="#path-3"></use>
                    </mask>
                    <use id="Clip-5" fill="#FFFFFF" xlink:href="#path-3"></use>
                </g>
                <g id="Group-51" transform="translate(0.000000, 0.202000)" fill="#FFFFFF">
                    <path d="M0,18.0496 C0,7.4986 8.001,0.7976 17.801,0.7976 C24.701,0.7976 29.052,4.2976 31.552,8.2486 L25.702,11.4476 C24.151,9.0986 21.302,7.0986 17.801,7.0986 C11.7,7.0986 7.3,11.7486 7.3,18.0496 C7.3,24.3496 11.7,28.9996 17.801,28.9996 C20.751,28.9996 23.501,27.6996 24.852,26.4496 L24.852,22.4486 L16.051,22.4486 L16.051,16.2486 L31.952,16.2486 L31.952,29.0496 C28.552,32.8506 23.802,35.2996 17.801,35.2996 C8.001,35.2996 0,28.5496 0,18.0496" id="Fill-7"></path>
                    <path d="M63.5518,18.0496 C63.5518,11.7986 59.6008,7.0986 53.4498,7.0986 C47.2498,7.0986 43.2998,11.7986 43.2998,18.0496 C43.2998,24.2486 47.2498,28.9996 53.4498,28.9996 C59.6008,28.9996 63.5518,24.2486 63.5518,18.0496 M35.9988,18.0496 C35.9988,7.9986 43.3508,0.7976 53.4498,0.7976 C63.5008,0.7976 70.8518,7.9986 70.8518,18.0496 C70.8518,28.0996 63.5008,35.2996 53.4498,35.2996 C43.3508,35.2996 35.9988,28.0996 35.9988,18.0496" id="Fill-10"></path>
                    <path d="M73.5488,29.9998 L77.4488,24.4498 C79.7998,26.8998 83.4498,28.9998 88.0498,28.9998 C91.9998,28.9998 93.8508,27.2488 93.8508,25.2998 C93.8508,19.4988 74.6498,23.5498 74.6498,10.9988 C74.6498,5.4478 79.4488,0.8488 87.2998,0.8488 C92.6008,0.8488 97.0008,2.4478 100.2998,5.4988 L96.3508,10.7988 C93.6498,8.2988 90.0498,7.1478 86.6498,7.1478 C83.6498,7.1478 81.9488,8.4478 81.9488,10.4478 C81.9488,15.6988 101.1008,12.1498 101.1008,24.5998 C101.1008,30.6998 96.6998,35.2998 87.7498,35.2998 C81.2998,35.2998 76.6988,33.1498 73.5488,29.9998" id="Fill-13"></path>
                    <path d="M125.4004,12.0984 C125.4004,9.2984 123.2504,7.5984 120.4504,7.5984 L112.9494,7.5984 L112.9494,16.5494 L120.4504,16.5494 C123.2504,16.5494 125.4004,14.8484 125.4004,12.0984 L125.4004,12.0984 Z M105.8484,34.7004 L105.8484,1.3484 L121.4504,1.3484 C128.7004,1.3484 132.6514,6.2484 132.6514,12.0984 C132.6514,17.8994 128.6504,22.7994 121.4504,22.7994 L112.9494,22.7994 L112.9494,34.7004 L105.8484,34.7004 Z" id="Fill-15"></path>
                    <polygon id="Fill-17" points="137.0987 34.7 137.0987 1.348 160.7007 1.348 160.7007 7.598 144.1997 7.598 144.1997 14.598 160.3507 14.598 160.3507 20.848 144.1997 20.848 144.1997 28.45 160.7007 28.45 160.7007 34.7"></polygon>
                    <polygon id="Fill-19" points="165.9483 34.7 165.9483 1.348 173.0983 1.348 173.0983 28.45 187.2003 28.45 187.2003 34.7"></polygon>
                    <path d="M0.8506,59.0496 C0.8506,48.7976 8.4006,41.7976 18.0006,41.7976 C23.9016,41.7976 28.0006,44.5986 30.6516,48.3986 L27.2026,50.3486 C25.3016,47.4986 21.8016,45.4986 18.0006,45.4986 C10.7006,45.4986 5.1506,51.0486 5.1506,59.0496 C5.1506,66.9496 10.7006,72.6006 18.0006,72.6006 C21.8016,72.6006 25.3016,70.5496 27.2026,67.7486 L30.7026,69.6496 C27.9016,73.4996 23.9016,76.2996 18.0006,76.2996 C8.4006,76.2996 0.8506,69.2996 0.8506,59.0496" id="Fill-21"></path>
                    <polygon id="Fill-23" points="38.0001 75.7 38.0001 42.348 59.8511 42.348 59.8511 46.048 42.1491 46.048 42.1491 56.799 59.5011 56.799 59.5011 60.499 42.1491 60.499 42.1491 72 59.8511 72 59.8511 75.7"></polygon>
                    <polygon id="Fill-25" points="90.0499 75.7 70.5989 49.098 70.5989 75.7 66.4499 75.7 66.4499 42.348 70.6999 42.348 89.9009 68.399 89.9009 42.348 94.0509 42.348 94.0509 75.7"></polygon>
                    <polygon id="Fill-27" points="110.0988 75.7 110.0988 46.048 99.5478 46.048 99.5478 42.348 124.8508 42.348 124.8508 46.048 114.2488 46.048 114.2488 75.7"></polygon>
                    <polygon id="Fill-29" points="131.3488 75.7 131.3488 42.348 153.2008 42.348 153.2008 46.048 135.4988 46.048 135.4988 56.799 152.8498 56.799 152.8498 60.499 135.4988 60.499 135.4988 72 153.2008 72 153.2008 75.7"></polygon>
                    <path d="M182.3998,52.3993 C182.3998,48.5983 179.6498,46.0473 175.6988,46.0473 L166.9488,46.0473 L166.9488,58.7993 L175.6988,58.7993 C179.6498,58.7993 182.3998,56.1493 182.3998,52.3993 L182.3998,52.3993 Z M182.0988,75.7003 L173.6488,62.4493 L166.9488,62.4493 L166.9488,75.7003 L162.7978,75.7003 L162.7978,42.3483 L176.1988,42.3483 C182.2988,42.3483 186.6998,46.2493 186.6998,52.3993 C186.6998,58.3993 182.5488,61.6993 177.9998,62.0993 L186.9998,75.7003 L182.0988,75.7003 Z" id="Fill-31"></path>
                    <polygon id="Fill-33" points="66.1516 108.7002 66.1516 92.0292 67.6006 92.0292 67.6006 107.4002 75.6736 107.4002 75.6736 108.7002"></polygon>
                    <path d="M90.8743,93.5537 L86.9263,103.3017 L94.7993,103.3017 L90.8743,93.5537 Z M96.9233,108.6997 L95.2733,104.6017 L86.4503,104.6017 L84.8013,108.6997 L83.1513,108.6997 L89.9753,92.0297 L91.7493,92.0297 L98.5723,108.6997 L96.9233,108.6997 Z" id="Fill-35"></path>
                    <path d="M130.2727,104.1016 C130.2727,102.4016 129.0977,100.8016 126.7737,100.8016 L121.4247,100.8016 L121.4247,107.4006 L126.7737,107.4006 C128.9727,107.4006 130.2727,106.1256 130.2727,104.1016 L130.2727,104.1016 Z M129.9487,96.4276 C129.9487,94.7286 128.8237,93.3296 126.6737,93.3296 L121.4247,93.3296 L121.4247,99.5026 L126.6737,99.5026 C128.8237,99.5026 129.9487,98.1526 129.9487,96.4276 L129.9487,96.4276 Z M120.0007,108.7006 L120.0007,92.0296 L126.8487,92.0296 C129.6477,92.0296 131.4477,93.6546 131.4477,96.2786 C131.4477,98.3776 130.0227,99.8026 128.5237,100.1026 C130.2977,100.3766 131.7727,102.2266 131.7727,104.2016 C131.7727,106.9756 129.9727,108.7006 126.9997,108.7006 L120.0007,108.7006 Z" id="Fill-37"></path>
                    <path d="M146.5246,90.5049 L145.4246,90.5049 L149.2736,86.9049 L150.8236,86.9049 L146.5246,90.5049 Z M141.6256,108.6999 L141.6256,92.0289 L152.1976,92.0289 L152.1976,93.3289 L143.0496,93.3289 L143.0496,99.5029 L152.0226,99.5029 L152.0226,100.8019 L143.0496,100.8019 L143.0496,107.4009 L152.1976,107.4009 L152.1976,108.6999 L141.6256,108.6999 Z" id="Fill-39"></path>
                    <path d="M171.7727,96.9033 C171.7727,94.8033 170.2977,93.3293 168.0737,93.3293 L163.3997,93.3293 L163.3997,100.5023 L168.0737,100.5023 C170.2977,100.5023 171.7727,99.0033 171.7727,96.9033 L171.7727,96.9033 Z M171.7477,108.7003 L167.0737,101.8013 L163.3997,101.8013 L163.3997,108.7003 L161.9747,108.7003 L161.9747,92.0293 L168.1987,92.0293 C171.0727,92.0293 173.2727,93.8533 173.2727,96.9033 C173.2727,99.9273 171.1477,101.6013 168.6487,101.7023 L173.4717,108.7003 L171.7477,108.7003 Z" id="Fill-41"></path>
                    <path d="M197.1467,100.377 C197.1467,96.153 194.5467,93.054 190.5477,93.054 C186.5237,93.054 183.9497,96.153 183.9497,100.377 C183.9497,104.576 186.5237,107.7 190.5477,107.7 C194.5467,107.7 197.1467,104.576 197.1467,100.377 M182.4497,100.377 C182.4497,95.503 185.6487,91.754 190.5477,91.754 C195.4217,91.754 198.6457,95.503 198.6457,100.377 C198.6457,105.251 195.4217,109 190.5477,109 C185.6487,109 182.4497,105.251 182.4497,100.377" id="Fill-43"></path>
                    <path d="M207.8,100.377 C207.8,95.254 211.525,91.754 216.248,91.754 C218.898,91.754 220.922,92.929 222.321,94.704 L221.122,95.479 C220.072,94.028 218.248,93.054 216.248,93.054 C212.349,93.054 209.3,96.028 209.3,100.377 C209.3,104.676 212.349,107.7 216.248,107.7 C218.248,107.7 220.072,106.726 221.122,105.276 L222.347,106.025 C220.847,107.851 218.898,109 216.248,109 C211.525,109 207.8,105.501 207.8,100.377" id="Fill-45"></path>
                    <polygon id="Fill-47" points="243.4465 108.7002 243.4465 100.7772 232.8745 100.7772 232.8745 108.7002 231.4495 108.7002 231.4495 92.0292 232.8745 92.0292 232.8745 99.4772 243.4465 99.4772 243.4465 92.0292 244.8715 92.0292 244.8715 108.7002"></polygon>
                    <polygon id="Fill-49" points="255.2746 108.7002 255.2746 92.0292 265.8466 92.0292 265.8466 93.3292 256.6996 93.3292 256.6996 99.5032 265.6716 99.5032 265.6716 100.8022 256.6996 100.8022 256.6996 107.4002 265.8466 107.4002 265.8466 108.7002"></polygon>
                </g>
            </g>
        </g>
    </g>
</svg>